<?xml version="1.0" encoding="iso-8859-1"?>
<!-- Generator: Adobe Illustrator 19.0.0, SVG Export Plug-In . SVG Version: 6.00 Build 0)  -->
<svg version="1.1" id="Layer_1" xmlns="http://www.w3.org/2000/svg" xmlns:xlink="http://www.w3.org/1999/xlink" x="0px" y="0px"
	 viewBox="0 0 512.032 512.032" style="enable-background:new 0 0 512.032 512.032;" xml:space="preserve">
<g>
	<g>
		<path d="M296.496,101.816c-30.144,0-54.64,24.8-54.64,55.248s24.512,55.248,54.64,55.248s54.656-24.784,54.656-55.248
			S326.624,101.816,296.496,101.816z M296.496,196.312c-21.296,0-38.64-17.6-38.64-39.248s17.328-39.248,38.64-39.248
			s38.656,17.616,38.656,39.248C335.152,178.696,317.808,196.312,296.496,196.312z"/>
	</g>
</g>
<g>
	<g>
		<path d="M400.448,240.44l-5.6-5.568L290.096,338.424L166.128,187.176L0,400.376l12.624,9.84l153.808-197.44l159.92,195.12
			l12.368-10.16l-38.448-46.912l94.528-93.44c22.176,21.984,102.432,101.632,105.888,105.104l11.344-11.28
			C508.032,347.176,400.448,240.44,400.448,240.44z"/>
	</g>
</g>
<g>
</g>
<g>
</g>
<g>
</g>
<g>
</g>
<g>
</g>
<g>
</g>
<g>
</g>
<g>
</g>
<g>
</g>
<g>
</g>
<g>
</g>
<g>
</g>
<g>
</g>
<g>
</g>
<g>
</g>
</svg>
